<svg width="26" height="26" viewBox="0 0 26 26" fill="none" xmlns="http://www.w3.org/2000/svg">
  <g clip-path="url(#clip0)">
    <path d="M12.9568 23.7974H3.23918C2.64316 23.7974 2.15947 23.3136 2.15947 22.7176V3.28239C2.15947 2.68637 2.64321 2.20268 3.23918 2.20268H12.9568C13.5539 2.20268 14.0365 1.72006 14.0365 1.12297C14.0365 0.525886 13.5539 0.0431595 12.9568 0.0431595H3.23918C1.45331 0.0431595 0 1.49652 0 3.28239V22.7176C0 24.5035 1.45331 25.9568 3.23918 25.9568H12.9568C13.5539 25.9568 14.0365 25.4742 14.0365 24.8771C14.0365 24.28 13.5539 23.7974 12.9568 23.7974Z" fill="#838383" />
    <path d="M25.6781 12.2312L19.1133 5.7528C18.69 5.33386 18.0055 5.33929 17.5865 5.76362C17.1676 6.18795 17.1719 6.87141 17.5973 7.29036L22.2888 11.9202H9.71741C9.12032 11.9202 8.6377 12.4029 8.6377 12.9999C8.6377 13.597 9.12032 14.0797 9.71741 14.0797H22.2888L17.5973 18.7096C17.1719 19.1285 17.1687 19.812 17.5865 20.2363C17.7981 20.4501 18.0767 20.5581 18.3553 20.5581C18.6296 20.5581 18.9038 20.4544 19.1133 20.2471L25.6781 13.7687C25.8832 13.5657 25.9998 13.2893 25.9998 12.9999C25.9998 12.7106 25.8843 12.4353 25.6781 12.2312Z" fill="#838383" />
  </g>
  <defs>
    <clipPath id="clip0">
      <rect width="26" height="26" fill="white" />
    </clipPath>
  </defs>
</svg>
