<svg width="26" height="26" viewBox="0 0 26 26" fill="none" xmlns="http://www.w3.org/2000/svg">
  <g clip-path="url(#clip0)">
    <path d="M14.018 8.92689H11.9814V20.9765H14.018V8.92689Z" fill="#EE752E" />
    <path d="M16.3264 0H9.67367C8.73787 0 7.97656 0.761312 7.97656 1.69711V4.92167H10.0131V2.03653H15.987V4.92167H18.0235V1.69711C18.0235 0.761312 17.2622 0 16.3264 0Z" fill="#EE752E" />
    <path d="M10.5214 20.9388L10.0801 8.88921L8.04492 8.96391L8.48621 21.0135L10.5214 20.9388Z" fill="#EE752E" />
    <path d="M0.882812 3.9034V5.93994H3.00491L4.68841 25.071C4.73457 25.5968 5.17484 26 5.70261 26H20.2636C20.7915 26 21.232 25.5965 21.2778 25.0707L22.9614 5.93994H25.1178V3.9034H0.882812ZM19.3309 23.9635H6.63506L5.04926 5.93994H20.9171L19.3309 23.9635Z" fill="#EE752E" />
    <path d="M17.955 8.96421L15.9198 8.88956L15.4785 20.9391L17.5137 21.0135L17.955 8.96421Z" fill="#EE752E" />
  </g>
  <defs>
    <clipPath id="clip0">
      <rect width="26" height="26" fill="white" />
    </clipPath>
  </defs>
</svg>
