<svg width="23" height="23" viewBox="0 0 23 23" fill="none" xmlns="http://www.w3.org/2000/svg">
  <path d="M11.4999 7.66658C9.38578 7.66658 7.6665 9.38586 7.6665 11.5C7.6665 13.6141 9.38578 15.3333 11.4999 15.3333C13.614 15.3333 15.3333 13.6141 15.3333 11.5C15.3333 9.38586 13.614 7.66658 11.4999 7.66658ZM11.4999 14.375C9.91479 14.375 8.62484 13.0851 8.62484 11.5C8.62484 9.91491 9.91479 8.62496 11.4999 8.62496C13.085 8.62496 14.3749 9.91491 14.3749 11.5C14.3749 13.0851 13.085 14.375 11.4999 14.375Z" fill="#13B38A" />
  <path d="M22.9148 11.2278C22.7337 10.9643 18.3809 4.79153 11.4999 4.79153C5.59554 4.79153 0.334213 10.9288 0.112834 11.1904C-0.0376114 11.3687 -0.0376114 11.6303 0.112834 11.8095C0.334213 12.0711 5.59554 18.2084 11.4999 18.2084C17.4043 18.2084 22.6656 12.0711 22.887 11.8095C23.026 11.6447 23.0384 11.4061 22.9148 11.2278ZM11.4999 17.2501C6.76668 17.2501 2.26624 12.7363 1.12296 11.5C2.26436 10.2628 6.75998 5.74991 11.4999 5.74991C17.0382 5.74991 20.9473 10.257 21.9019 11.4741C20.7997 12.6711 16.2735 17.2501 11.4999 17.2501Z" fill="#13B38A" />
</svg>
