<svg width="26" height="26" viewBox="0 0 26 26" fill="none" xmlns="http://www.w3.org/2000/svg">
  <g clip-path="url(#clip0)">
    <path d="M3.42995 17.211L1.96338 18.6776L7.32218 24.0364L8.78875 22.5698L3.42995 17.211Z" fill="#004231" />
    <path d="M16.3606 4.24557L14.894 5.71214L20.2871 11.1052L21.7536 9.63858L16.3606 4.24557Z" fill="#004231" />
    <path d="M25.6977 5.66293L20.3387 0.303977C19.9335 -0.100902 19.278 -0.101207 18.8728 0.303266L2.00067 17.1412C1.86478 17.2767 1.76901 17.4475 1.72442 17.6342L0.0303024 24.7219C-0.0533853 25.0721 0.051072 25.4414 0.305842 25.6962C0.502569 25.8929 0.767394 26.0001 1.03918 26.0001C1.11971 26.0001 1.20066 25.9904 1.28013 25.9714L8.36784 24.2773C8.55456 24.2327 8.72534 24.1373 8.86087 24.001L25.6984 7.12889C26.1029 6.7237 26.1026 6.06746 25.6977 5.66293ZM7.60028 22.328L2.44079 23.5613L3.67371 18.4018L19.6051 2.50357L23.4985 6.39698L7.60028 22.328Z" fill="#004231" />
    <path d="M17.5898 6.94213L4.62549 19.9064L6.09206 21.373L19.0564 8.4087L17.5898 6.94213Z" fill="#004231" />
  </g>
  <defs>
    <clipPath id="clip0">
      <rect width="26" height="26" fill="white" />
    </clipPath>
  </defs>
</svg>
