<svg width="21" height="21" viewBox="0 0 21 21" fill="none" xmlns="http://www.w3.org/2000/svg">
  <path d="M8.1871 10.5L0.335487 2.64754C0.119511 2.43138 0.000341415 2.14299 0 1.83549C0 1.52781 0.119169 1.23908 0.335487 1.02326L1.02354 0.335339C1.23985 0.118666 1.52822 0 1.83605 0C2.14337 0 2.43173 0.118666 2.64805 0.335339L10.4997 8.18729L18.3516 0.335339C18.5676 0.118666 18.8561 0 19.1638 0C19.4711 0 19.7596 0.118666 19.9756 0.335339L20.664 1.02326C21.112 1.47129 21.112 2.20002 20.664 2.64754L12.8122 10.5L20.664 18.3521C20.8801 18.5686 20.9991 18.857 20.9991 19.1645C20.9991 19.472 20.8801 19.7604 20.664 19.9767L19.9758 20.6647C19.7598 20.8812 19.4711 21 19.164 21C18.8563 21 18.5678 20.8812 18.3518 20.6647L10.4998 12.8125L2.64822 20.6647C2.4319 20.8812 2.14354 21 1.83622 21H1.83588C1.52839 21 1.24002 20.8812 1.02371 20.6647L0.335659 19.9767C0.119684 19.7606 0.000511169 19.472 0.000511169 19.1645C0.000511169 18.857 0.119684 18.5686 0.335659 18.3523L8.1871 10.5Z" fill="#FE995D" />
</svg>
