<svg width="23" height="23" viewBox="0 0 23 23" fill="none" xmlns="http://www.w3.org/2000/svg">
  <path d="M14.2102 8.78949C14.0233 8.60261 13.7195 8.60261 13.5326 8.78949C13.3457 8.97636 13.3457 9.28111 13.5326 9.46704C14.075 10.0095 14.375 10.7311 14.375 11.4997C14.375 13.0847 13.0851 14.3747 11.5 14.3747C10.7314 14.3747 10.0098 14.0757 9.46737 13.5323C9.2805 13.3454 8.97669 13.3454 8.78981 13.5323C8.60294 13.7182 8.60294 14.023 8.78981 14.2098C9.51238 14.9343 10.4755 15.333 11.5 15.333C13.6141 15.333 15.3333 13.6138 15.3333 11.4997C15.3333 10.4752 14.9347 9.51205 14.2102 8.78949Z" fill="#13B38A" />
  <path d="M12.168 7.73243C11.9504 7.69411 11.7281 7.66631 11.5001 7.66631C9.38599 7.66631 7.66675 9.38555 7.66675 11.4996C7.66675 11.7277 7.69455 11.95 7.73382 12.1676C7.77501 12.3995 7.97725 12.5634 8.20437 12.5634C8.23218 12.5634 8.25994 12.5614 8.28869 12.5557C8.54838 12.5097 8.72281 12.2605 8.67681 12.0008C8.64712 11.8379 8.62506 11.6721 8.62506 11.4996C8.62506 9.91455 9.91499 8.62462 11.5001 8.62462C11.6726 8.62462 11.8384 8.64668 12.0013 8.67543C12.2562 8.72718 12.5101 8.547 12.5561 8.2873C12.6021 8.02761 12.4277 7.77843 12.168 7.73243Z" fill="#13B38A" />
  <path d="M22.8859 11.1901C22.7776 11.0617 20.1854 8.03624 16.6098 6.1838C16.3779 6.0621 16.0856 6.1541 15.9639 6.38985C15.8422 6.62466 15.9342 6.91405 16.1699 7.03578C18.9242 8.46178 21.1245 10.687 21.8768 11.4997C20.7345 12.7369 16.2389 17.2497 11.5 17.2497C9.89194 17.2497 8.27139 16.8616 6.68152 16.0949C6.44577 15.9789 6.15732 16.0796 6.04232 16.3182C5.92638 16.5559 6.02701 16.8424 6.26563 16.9574C7.98582 17.7883 9.74725 18.208 11.5001 18.208C17.4043 18.208 22.6656 12.0708 22.887 11.8092C23.0383 11.6309 23.0374 11.3693 22.8859 11.1901Z" fill="#13B38A" />
  <path d="M14.6443 5.34332C13.5538 4.97626 12.4958 4.79132 11.5 4.79132C5.59575 4.79132 0.334508 10.9285 0.113133 11.1901C-0.0267981 11.3549 -0.0382981 11.5945 0.086315 11.7737C0.15244 11.8686 1.73656 14.1178 4.48218 15.9415C4.56362 15.9962 4.65468 16.022 4.74668 16.022C4.90099 16.022 5.05336 15.9473 5.14536 15.8064C5.29199 15.587 5.23161 15.2889 5.01118 15.1432C2.99487 13.8025 1.61487 12.1839 1.09831 11.5255C2.20137 10.3276 6.72661 5.74968 11.5 5.74968C12.3922 5.74968 13.3477 5.91836 14.3386 6.25087C14.5897 6.34094 14.8619 6.202 14.9452 5.94994C15.0296 5.69888 14.8954 5.42768 14.6443 5.34332Z" fill="#13B38A" />
  <path d="M19.9843 3.01551C19.7974 2.82863 19.4936 2.82863 19.3068 3.01551L3.01516 19.3072C2.82828 19.494 2.82828 19.7978 3.01516 19.9847C3.10909 20.0777 3.23172 20.1246 3.35441 20.1246C3.47709 20.1246 3.59972 20.0777 3.69271 19.9847L19.9843 3.69306C20.1712 3.50619 20.1712 3.20238 19.9843 3.01551Z" fill="#13B38A" />
</svg>
